<?xml version="1.0" encoding="UTF-8"?>
<svg xmlns="http://www.w3.org/2000/svg" xmlns:xlink="http://www.w3.org/1999/xlink" width="38px" height="38px" viewBox="0 0 38 38" version="1.1">
<g id="surface1">
<path style=" stroke:none;fill-rule:nonzero;fill:white;fill-opacity:1;" d="M 19 0 C 8.507812 0 0 8.507812 0 19 C 0 29.492188 8.507812 38 19 38 C 29.492188 38 38 29.492188 38 19 C 38 8.507812 29.492188 0 19 0 Z M 28.636719 21.054688 C 29.523438 21.917969 30.460938 22.734375 31.257812 23.691406 C 31.605469 24.109375 31.9375 24.550781 32.191406 25.035156 C 32.554688 25.738281 32.230469 26.507812 31.601562 26.550781 L 27.707031 26.546875 C 26.703125 26.628906 25.902344 26.222656 25.226562 25.539062 C 24.691406 24.992188 24.191406 24.402344 23.671875 23.835938 C 23.460938 23.605469 23.238281 23.386719 22.96875 23.214844 C 22.4375 22.871094 21.980469 22.976562 21.675781 23.53125 C 21.363281 24.09375 21.292969 24.71875 21.265625 25.347656 C 21.222656 26.261719 20.945312 26.503906 20.023438 26.546875 C 18.054688 26.640625 16.191406 26.339844 14.457031 25.347656 C 12.925781 24.476562 11.738281 23.238281 10.707031 21.84375 C 8.695312 19.113281 7.15625 16.125 5.769531 13.042969 C 5.460938 12.351562 5.691406 11.980469 6.453125 11.96875 C 7.722656 11.941406 8.996094 11.945312 10.261719 11.96875 C 10.78125 11.972656 11.121094 12.269531 11.324219 12.757812 C 12.007812 14.449219 12.851562 16.050781 13.902344 17.542969 C 14.1875 17.941406 14.472656 18.335938 14.882812 18.617188 C 15.332031 18.925781 15.679688 18.824219 15.890625 18.320312 C 16.023438 18 16.082031 17.65625 16.113281 17.3125 C 16.214844 16.140625 16.226562 14.96875 16.050781 13.796875 C 15.945312 13.066406 15.53125 12.59375 14.800781 12.453125 C 14.429688 12.382812 14.484375 12.246094 14.664062 12.035156 C 14.976562 11.667969 15.269531 11.441406 15.859375 11.441406 L 20.257812 11.441406 C 20.949219 11.574219 21.105469 11.886719 21.203125 12.585938 L 21.203125 17.472656 C 21.195312 17.742188 21.339844 18.542969 21.824219 18.722656 C 22.210938 18.847656 22.46875 18.535156 22.703125 18.289062 C 23.757812 17.167969 24.511719 15.851562 25.179688 14.484375 C 25.476562 13.878906 25.734375 13.257812 25.984375 12.632812 C 26.167969 12.167969 26.457031 11.941406 26.976562 11.949219 L 31.214844 11.953125 C 31.339844 11.953125 31.464844 11.957031 31.589844 11.976562 C 32.304688 12.097656 32.496094 12.40625 32.277344 13.101562 C 31.929688 14.195312 31.253906 15.109375 30.59375 16.019531 C 29.886719 17 29.132812 17.941406 28.433594 18.925781 C 27.785156 19.824219 27.839844 20.277344 28.636719 21.054688 Z M 28.636719 21.054688 "/>
</g>
</svg>
