<?xml version="1.0" encoding="iso-8859-1"?>
<!-- Generator: Adobe Illustrator 25.0.0, SVG Export Plug-In . SVG Version: 6.00 Build 0)  -->
<svg version="1.1" baseProfile="basic" id="Layer_1"
	 xmlns="http://www.w3.org/2000/svg" xmlns:xlink="http://www.w3.org/1999/xlink" x="0px" y="0px" viewBox="0 0 50 50"
	 xml:space="preserve">
<path d="M15.93,24.711c0.743-0.316,13.613-5.781,14.62-6.144c0.735-0.265,1.367-0.367,1.794-0.162
	c0.353,0.169,0.533,0.549,0.479,1.119c-0.18,1.884-1.646,11.446-1.959,12.405c-0.267,0.819-0.549,1.526-1.085,1.526
	s-1.121-0.187-1.699-0.599c-0.578-0.413-4.41-2.983-4.943-3.319c-0.467-0.294-0.961-1.029-0.265-1.738
	c0.573-0.584,4.917-4.8,5.289-5.172c0.371-0.371,0.009-0.847-0.445-0.476s-6.784,4.606-7.332,4.947
	c-0.517,0.321-1.44,0.516-2.251,0.292c-0.842-0.232-2.268-0.664-2.834-0.866c-0.544-0.194-0.742-0.382-0.742-0.714
	C14.558,25.337,15.225,25.011,15.93,24.711z"/>
<path id="circle_2_" d="M25,8c9.389,0,17,7.611,17,17s-7.611,17-17,17S8,34.389,8,25S15.611,8,25,8z M25,41c8.837,0,16-7.163,16-16
	S33.837,9,25,9S9,16.163,9,25S16.163,41,25,41z"/>
</svg>